# xmcd
#
# Track frame offsets:
#	150
#	17322
#	33144
#	49859
#	70040
#	86262
#	99962
#	115455
#	131119
#	149122
#	164195
#	178836
#	195358
#
# Disc length: 2785 seconds
#
# Revision: 6
# Processed by: cddbd v1.5.2PL0 Copyright (c) Steve Scherf et al.
# Submitted via: EasyCDDAExtractor 15.3.0.1
#
DISCID=b00adf0d
DTITLE=La Quinta Estacion - Flores De Alquiler
DYEAR=2004
DGENRE=Latin
TTITLE0=El Sol No Regresa
TTITLE1=Esperare Despierta
TTITLE2=Daria
TTITLE3=Algo Mas
TTITLE4=Flores De Alquiler
TTITLE5=Mi Ciudad
TTITLE6=Busco Tu Piel
TTITLE7=A Cada Paso
TTITLE8=Niña
TTITLE9=No Hay Perdon
TTITLE10=Rompe El Mar
TTITLE11=Si Yo Fuera Mujer (Se Fossi Una Donna) (Bonus Track)
TTITLE12=Voy A Pasarmelo Bien (Bonus Track)
EXTD=flores de alquiler YEAR: 2004 ID3G: 86
EXTT0=
EXTT1=
EXTT2=
EXTT3=
EXTT4=
EXTT5=
EXTT6=
EXTT7=
EXTT8=
EXTT9=
EXTT10=
EXTT11=
EXTT12=
PLAYORDER=
